<svg width="24" height="24" viewBox="0 0 33 33" fill="none" xmlns="http://www.w3.org/2000/svg" class="absolute right-4"><rect x="0.5" y="0.5" width="32" height="32" rx="16" fill="white"></rect><path d="M17.1562 9.9375L19.0312 13.9688L23.0625 15.8438C23.3125 15.9688 23.5 16.2188 23.5 16.5C23.5 16.8125 23.3125 17.0625 23.0625 17.1875L19.0312 19.0625L17.1562 23.0938C17.0312 23.3438 16.7812 23.5 16.5 23.5C16.1875 23.5 15.9375 23.3438 15.8125 23.0938L13.9375 19.0625L9.90625 17.1875C9.65625 17.0625 9.5 16.8125 9.5 16.5C9.5 16.2188 9.65625 15.9688 9.90625 15.8438L13.9375 13.9688L15.8125 9.9375C15.9375 9.6875 16.1875 9.5 16.5 9.5C16.7812 9.5 17.0312 9.6875 17.1562 9.9375Z" fill="black"></path></svg>