<svg width="21" height="21" viewBox="0 0 21 20" fill="currentColor" xmlns="http://www.w3.org/2000/svg"><path d="M12.7188 4.6875L14.5 4L15.1562 2.25C15.1875 2.09375 15.3438 2 15.5 2C15.625 2 15.7812 2.09375 15.8125 2.25L16.5 4L18.25 4.6875C18.4062 4.71875 18.5 4.875 18.5 5C18.5 5.15625 18.4062 5.3125 18.25 5.34375L16.5 6L15.8125 7.78125C15.7812 7.90625 15.625 8 15.5 8C15.3438 8 15.1875 7.90625 15.1562 7.78125L14.5 6L12.7188 5.34375C12.5938 5.3125 12.5 5.15625 12.5 5C12.5 4.875 12.5938 4.71875 12.7188 4.6875ZM8.90625 4.3125L10.5312 7.875L14.0938 9.5C14.2812 9.59375 14.4062 9.78125 14.4062 9.96875C14.4062 10.1562 14.2812 10.3438 14.0938 10.4062L10.5312 12.0625L8.90625 15.625C8.8125 15.8125 8.625 15.9375 8.4375 15.9375C8.25 15.9375 8.0625 15.8125 8 15.625L6.34375 12.0625L2.78125 10.4375C2.59375 10.3438 2.5 10.1562 2.5 9.96875C2.5 9.78125 2.59375 9.59375 2.78125 9.5L6.34375 7.875L8 4.3125C8.0625 4.125 8.25 4 8.4375 4C8.625 4 8.8125 4.125 8.90625 4.3125ZM14.5 14L15.1562 12.25C15.1875 12.0938 15.3438 12 15.5 12C15.625 12 15.7812 12.0938 15.8125 12.25L16.5 14L18.25 14.6875C18.4062 14.7188 18.5 14.875 18.5 15C18.5 15.1562 18.4062 15.3125 18.25 15.3438L16.5 16L15.8125 17.7812C15.7812 17.9062 15.625 18 15.5 18C15.3438 18 15.1875 17.9062 15.1562 17.7812L14.5 16L12.7188 15.3438C12.5938 15.3125 12.5 15.1562 12.5 15C12.5 14.875 12.5938 14.7188 12.7188 14.6875L14.5 14Z"></path></svg>