<svg width="20" height="20" viewBox="0 0 20 20" fill="currentColor" xmlns="http://www.w3.org/2000/svg"><path d="M2.5 3C2.5 2.46875 2.9375 2 3.5 2H7.5C8.03125 2 8.5 2.46875 8.5 3V15C8.5 16.6562 7.15625 18 5.5 18C3.84375 18 2.5 16.6562 2.5 15V3ZM9.46875 15.3125C9.46875 15.2188 9.5 15.125 9.5 15V6.8125L11.8438 4.46875C12.2188 4.09375 12.875 4.09375 13.25 4.46875L16.0938 7.3125C16.4688 7.6875 16.4688 8.3125 16.0938 8.71875L9.46875 15.3125ZM8.1875 18L14.1875 12H17.5C18.0312 12 18.5 12.4688 18.5 13V17C18.5 17.5625 18.0312 18 17.5 18H8.1875ZM6.5 4H4.5V6H6.5V4ZM4.5 8V10H6.5V8H4.5ZM5.5 15.75C5.90625 15.75 6.25 15.4375 6.25 15C6.25 14.5938 5.90625 14.25 5.5 14.25C5.0625 14.25 4.75 14.5938 4.75 15C4.75 15.4375 5.0625 15.75 5.5 15.75Z" fill="currentColor"></path></svg>