<svg width="21" height="21" viewBox="0 0 21 20" fill="none" stroke="currentColor" xmlns="http://www.w3.org/2000/svg"><path d="M6.5 2H8.5C9.03125 2 9.5 2.46875 9.5 3V6H5.5V3C5.5 2.46875 5.9375 2 6.5 2ZM2.5 10C2.5 8.34375 3.84375 7 5.5 7H9.5C11.1562 7 12.5 8.34375 12.5 10V16.5C12.5 17.3438 11.8125 18 11 18H4C3.15625 18 2.5 17.3438 2.5 16.5V10ZM10 12.5C10 11.625 9.5 10.8125 8.75 10.3438C7.96875 9.90625 7 9.90625 6.25 10.3438C5.46875 10.8125 5 11.625 5 12.5C5 13.4062 5.46875 14.2188 6.25 14.6875C7 15.125 7.96875 15.125 8.75 14.6875C9.5 14.2188 10 13.4062 10 12.5ZM10.5 4C10.5 3.46875 10.9375 3 11.5 3C12.0312 3 12.5 3.46875 12.5 4C12.5 4.5625 12.0312 5 11.5 5C10.9375 5 10.5 4.5625 10.5 4ZM14.5 3C15.0312 3 15.5 3.46875 15.5 4C15.5 4.5625 15.0312 5 14.5 5C13.9375 5 13.5 4.5625 13.5 4C13.5 3.46875 13.9375 3 14.5 3ZM16.5 4C16.5 3.46875 16.9375 3 17.5 3C18.0312 3 18.5 3.46875 18.5 4C18.5 4.5625 18.0312 5 17.5 5C16.9375 5 16.5 4.5625 16.5 4ZM17.5 6C18.0312 6 18.5 6.46875 18.5 7C18.5 7.5625 18.0312 8 17.5 8C16.9375 8 16.5 7.5625 16.5 7C16.5 6.46875 16.9375 6 17.5 6ZM16.5 10C16.5 9.46875 16.9375 9 17.5 9C18.0312 9 18.5 9.46875 18.5 10C18.5 10.5625 18.0312 11 17.5 11C16.9375 11 16.5 10.5625 16.5 10ZM14.5 6C15.0312 6 15.5 6.46875 15.5 7C15.5 7.5625 15.0312 8 14.5 8C13.9375 8 13.5 7.5625 13.5 7C13.5 6.46875 13.9375 6 14.5 6Z"></path></svg>